<?xml version="1.0" encoding="iso-8859-1"?>
<!-- Generator: Adobe Illustrator 19.0.0, SVG Export Plug-In . SVG Version: 6.00 Build 0)  -->
<svg version="1.1" id="Layer_1" xmlns="http://www.w3.org/2000/svg" xmlns:xlink="http://www.w3.org/1999/xlink" x="0px" y="0px"
	 viewBox="0 0 512 512" style="enable-background:new 0 0 512 512;" xml:space="preserve">
<circle style="fill:#71E2EF;" cx="256" cy="256" r="256"/>
<path style="fill:#38C6D9;" d="M512,256c0-10.352-0.631-20.554-1.826-30.584l-83.508-83.194l-8.045,6.21L398.222,128L85.333,369.778
	l140.819,140.481C235.946,511.397,245.901,512,256,512C397.384,512,512,397.384,512,256z"/>
<rect x="85.333" y="142.222" style="fill:#273B7A;" width="341.333" height="227.556"/>
<rect x="256" y="142.222" style="fill:#121149;" width="170.667" height="227.556"/>
<rect x="113.778" y="128" style="fill:#386895;" width="284.444" height="256"/>
<rect x="256" y="128" style="fill:#273B7A;" width="142.222" height="256"/>
<path style="fill:#FFEDB5;" d="M324.956,185.228c0-5.117-4.777-8.89-9.756-7.708L214.73,201.423
	c-3.568,0.85-6.089,4.037-6.089,7.708v77.831c-8.752-5.534-21.663-5.811-33.321,0.283c-16.01,8.37-23.562,25.538-16.865,38.347
	c6.696,12.809,25.104,16.406,41.113,8.037c11.985-6.265,19.227-17.461,19.303-28.067l0.003,0.002V229.45l95.847-22.802v64.476
	c-8.752-5.534-21.663-5.811-33.321,0.284c-16.01,8.37-23.562,25.538-16.865,38.347c6.696,12.809,25.104,16.406,41.113,8.037
	c12.205-6.38,19.47-17.872,19.278-28.65l0.028,0.007V185.228H324.956z"/>
<path style="fill:#FDE085;" d="M315.201,177.523L256,191.607v29.012l58.723-13.971v64.476c-8.752-5.534-21.663-5.811-33.321,0.284
	c-16.01,8.37-23.562,25.538-16.865,38.347c6.696,12.809,25.104,16.406,41.113,8.037c12.205-6.38,19.47-17.872,19.278-28.65
	l0.028,0.007V185.23C324.956,180.112,320.179,176.338,315.201,177.523z"/>
<g>
</g>
<g>
</g>
<g>
</g>
<g>
</g>
<g>
</g>
<g>
</g>
<g>
</g>
<g>
</g>
<g>
</g>
<g>
</g>
<g>
</g>
<g>
</g>
<g>
</g>
<g>
</g>
<g>
</g>
</svg>
